<svg width="16" height="16" viewBox="0 0 16 16" fill="none" xmlns="http://www.w3.org/2000/svg">
<g clip-path="url(#clip0_1917_4605)">
<path d="M17.0664 3.69959C16.556 3.92626 16.0077 4.07879 15.4323 4.14759C16.02 3.79559 16.4707 3.23826 16.683 2.57372C16.1336 2.89959 15.5245 3.13639 14.876 3.26439C14.3571 2.71132 13.6179 2.36572 12.7998 2.36572C11.2285 2.36572 9.95495 3.63986 9.95495 5.21052C9.95495 5.43346 9.98055 5.65106 10.0286 5.85852C7.66428 5.74012 5.56828 4.60732 4.16455 2.88572C3.92029 3.30599 3.78002 3.79452 3.78002 4.31666C3.78002 5.30332 4.28189 6.17426 5.04509 6.68412C4.57895 6.66919 4.14002 6.54119 3.75655 6.32839C3.75655 6.34066 3.75655 6.35186 3.75655 6.36412C3.75655 7.74279 4.73682 8.89266 6.03868 9.15346C5.80028 9.21852 5.54855 9.25319 5.28882 9.25319C5.10588 9.25319 4.92722 9.23505 4.75389 9.20252C5.11602 10.3327 6.16668 11.1556 7.41148 11.1785C6.43815 11.9417 5.21149 12.3967 3.87815 12.3967C3.64882 12.3967 3.42215 12.3833 3.19922 12.3567C4.45842 13.1636 5.95335 13.6345 7.56028 13.6345C12.7934 13.6345 15.6541 9.29959 15.6541 5.54012C15.6541 5.41692 15.6515 5.29426 15.6461 5.17212C16.2024 4.77052 16.6851 4.26972 17.0664 3.69959Z" fill="#F9F9F9"/>
</g>
<defs>
<clipPath id="clip0_1917_4605">
<rect width="16" height="16" fill="white"/>
</clipPath>
</defs>
</svg>
